<?xml version="1.0" standalone="no"?>
<!DOCTYPE svg PUBLIC "-//W3C//DTD SVG 20010904//EN"
 "http://www.w3.org/TR/2001/REC-SVG-20010904/DTD/svg10.dtd">
<svg version="1.0" xmlns="http://www.w3.org/2000/svg"
 width="1600.000000pt" height="900.000000pt" viewBox="0 0 1600.000000 900.000000"
 preserveAspectRatio="xMidYMid meet">

<g transform="translate(0.000000,900.000000) scale(0.100000,-0.100000)"
fill="#000000" stroke="none">
<path d="M0 4500 l0 -4500 8000 0 8000 0 0 4500 0 4500 -8000 0 -8000 0 0
-4500z m13145 2420 c90 -9 280 -53 300 -69 5 -5 29 -15 52 -21 24 -7 40 -17
36 -23 -3 -6 -1 -7 5 -3 10 6 54 -15 72 -34 3 -3 10 -6 17 -7 18 -4 111 -65
173 -114 80 -63 221 -212 215 -227 -3 -7 -1 -10 5 -7 9 6 91 -109 124 -175 70
-136 86 -173 105 -235 53 -181 52 -163 62 -935 5 -399 8 -966 6 -1260 -3 -507
-5 -540 -25 -632 -48 -211 -123 -378 -241 -533 -68 -90 -204 -226 -219 -220
-7 3 -10 0 -7 -5 8 -13 -135 -117 -230 -167 -195 -101 -316 -132 -542 -140
-200 -7 -305 8 -468 64 -105 37 -136 51 -200 91 -22 14 -40 24 -40 22 0 -7
-141 94 -185 133 -25 22 -44 44 -42 49 1 5 -2 7 -7 4 -11 -7 -72 64 -65 76 3
4 -1 6 -8 3 -14 -4 -66 58 -137 162 -35 54 -77 131 -130 243 l-11 25 4 -25 c3
-14 21 -119 40 -235 20 -115 48 -282 64 -371 15 -89 26 -166 24 -173 -4 -12
-773 -17 -785 -4 -4 3 -2 12 5 20 8 10 8 12 -4 8 -12 -5 -16 5 -21 42 -7 54
-54 371 -62 421 l-6 32 -462 -2 -461 -3 -37 -254 c-21 -139 -42 -258 -46 -262
-5 -5 -343 -8 -764 -7 l-754 3 -5 760 c-5 711 -6 764 -24 830 -11 38 -23 74
-28 80 -4 5 -26 37 -47 70 -22 33 -63 83 -93 110 -114 107 -198 142 -376 156
-121 10 -456 9 -465 -1 -3 -3 -9 -455 -13 -1005 l-9 -1000 -793 -2 -792 -3
-10 23 c-5 12 -23 121 -40 242 -17 121 -34 230 -37 243 l-5 22 -458 0 c-428 0
-459 -1 -464 -17 -3 -10 -12 -70 -21 -133 -23 -165 -55 -362 -61 -372 -3 -4
-178 -8 -388 -8 -432 0 -414 -3 -397 72 16 65 71 381 71 403 0 15 -6 12 -30
-15 -16 -18 -30 -36 -30 -39 0 -3 -28 -35 -63 -71 -111 -116 -232 -208 -354
-269 -91 -46 -183 -82 -193 -76 -4 3 -10 1 -12 -4 -3 -10 -46 -22 -88 -25 -14
0 -27 -4 -30 -8 -21 -27 -425 -35 -520 -10 -19 5 -60 15 -90 22 -30 7 -59 16
-65 20 -5 4 -23 10 -38 14 -36 9 -177 77 -177 86 0 4 -6 7 -13 7 -18 0 -157
96 -218 151 -27 24 -46 49 -42 54 3 6 1 8 -4 5 -14 -9 -66 40 -58 53 4 6 2 9
-3 8 -12 -4 -89 83 -139 157 -58 86 -126 223 -117 236 4 7 3 9 -3 6 -8 -5 -35
62 -38 93 0 3 -4 10 -8 17 -4 7 -17 52 -29 100 -17 74 -21 130 -25 357 -4 218
-2 270 9 277 7 5 185 9 395 9 368 0 383 -1 393 -19 6 -12 10 -102 10 -224 0
-183 2 -212 22 -273 12 -38 21 -72 20 -76 -1 -5 2 -8 6 -8 7 0 36 -49 33 -57
0 -2 9 -13 22 -25 12 -13 36 -39 52 -58 34 -39 115 -94 163 -111 18 -6 32 -14
32 -17 0 -4 10 -8 23 -8 12 -1 49 -5 83 -9 73 -9 180 7 236 36 22 11 46 18 54
15 8 -3 13 -2 9 3 -3 5 9 20 27 32 68 48 129 124 176 219 l47 95 1 125 c1 69
-1 127 -4 130 -4 3 -18 27 -32 55 -22 45 -140 175 -181 200 -9 6 -41 26 -70
46 -30 19 -109 66 -176 103 -68 37 -123 71 -123 75 0 4 -6 8 -13 8 -7 0 -54
22 -103 50 -49 28 -120 67 -159 88 -38 21 -76 46 -83 54 -8 9 -11 10 -7 4 5
-11 -192 95 -222 119 -7 6 -10 15 -6 21 4 6 1 7 -6 3 -17 -11 -118 69 -225
178 -100 103 -101 105 -144 165 -18 24 -29 48 -25 54 3 5 1 7 -4 4 -10 -7 -28
20 -25 36 1 4 -2 7 -7 7 -9 0 -35 58 -32 73 0 4 -3 7 -8 7 -22 0 -101 221
-127 355 -36 187 -38 467 -3 598 25 100 53 187 59 187 3 0 7 11 8 25 2 25 69
158 106 210 11 16 26 37 31 46 6 9 27 39 49 68 33 44 41 50 55 39 13 -10 14
-10 3 2 -10 11 -7 19 15 40 16 14 33 35 40 46 10 17 13 17 23 4 10 -13 11 -13
7 1 -3 10 8 29 29 50 19 18 34 30 34 27 0 -4 13 6 28 20 38 37 71 58 85 54 7
-2 9 0 5 4 -16 15 183 121 203 108 7 -4 9 -3 5 4 -13 22 188 81 349 103 106
14 307 6 410 -16 94 -20 154 -38 150 -44 -2 -4 11 -7 28 -8 18 -2 33 -7 35
-13 2 -5 10 -10 18 -10 50 0 311 -166 378 -240 19 -21 38 -39 43 -41 16 -7
107 -112 156 -180 74 -105 154 -268 186 -381 47 -169 53 -240 49 -613 l-3
-340 -395 0 -395 0 -6 335 c-6 336 -10 373 -49 474 -14 38 -77 125 -112 154
-16 13 -28 30 -28 38 0 8 -7 14 -16 14 -9 0 -29 9 -45 21 -16 11 -61 32 -101
46 -65 22 -84 25 -173 20 -110 -5 -173 -24 -247 -75 -25 -17 -48 -29 -52 -27
-3 3 -4 2 -1 -1 2 -4 -20 -33 -50 -65 -98 -107 -135 -208 -135 -369 0 -128 11
-193 47 -280 57 -139 166 -244 371 -360 15 -8 59 -33 97 -55 39 -21 88 -49
110 -60 217 -114 515 -279 515 -285 0 -3 6 -7 13 -7 19 0 164 -101 202 -140
18 -18 36 -33 41 -33 11 0 122 -114 180 -185 81 -100 158 -241 189 -349 9 -32
18 -56 20 -54 5 5 28 129 100 533 25 143 50 283 56 310 13 67 58 317 69 380 4
28 13 77 19 110 25 133 33 180 76 420 25 138 52 288 60 335 31 167 116 636
121 665 3 17 16 90 29 163 13 73 27 137 30 142 4 6 189 10 509 10 l503 0 11
-22 c6 -13 20 -79 32 -148 11 -69 47 -282 81 -475 33 -192 80 -465 104 -605
24 -140 56 -320 70 -400 26 -149 71 -407 175 -1010 33 -190 71 -410 85 -490
14 -80 46 -260 70 -400 58 -340 157 -909 174 -1005 13 -74 21 709 22 2289 1
864 5 1726 8 1916 l6 345 785 0 c838 0 788 2 970 -48 108 -30 341 -140 382
-180 7 -7 33 -27 58 -44 68 -47 190 -169 253 -255 31 -42 57 -82 57 -87 0 -6
3 -11 8 -11 12 0 42 -61 35 -72 -3 -6 -2 -8 3 -5 10 6 80 -131 87 -169 2 -11
7 -26 10 -34 55 -137 82 -410 57 -585 -14 -96 -57 -260 -81 -306 -10 -21 -19
-45 -19 -54 0 -10 -5 -13 -12 -9 -7 4 -8 3 -4 -4 7 -12 -46 -126 -64 -137 -6
-3 -8 -10 -6 -14 7 -11 -118 -177 -182 -243 l-56 -57 42 -50 c64 -75 133 -182
125 -194 -3 -5 -1 -7 4 -4 16 10 95 -159 133 -287 53 -177 60 -278 60 -838 1
-441 7 -545 24 -403 3 28 20 122 37 210 16 88 32 176 35 195 3 19 11 69 19
110 18 91 67 365 100 550 48 272 56 317 80 445 14 72 33 180 44 240 11 61 43
238 71 395 28 157 62 346 75 420 14 74 31 171 39 215 8 44 35 193 60 330 44
245 89 494 146 808 16 86 32 162 35 167 8 14 1012 14 1020 0 8 -13 9 -17 50
-265 19 -115 42 -244 50 -285 8 -41 31 -169 50 -285 20 -115 50 -286 66 -380
16 -93 40 -233 54 -310 13 -77 36 -207 50 -290 15 -82 44 -251 65 -375 22
-124 46 -263 54 -310 8 -47 31 -179 51 -294 57 -335 95 -550 99 -561 3 -5 5
357 5 805 2 1043 8 1419 27 1535 19 115 73 275 128 379 57 108 135 218 148
210 6 -4 8 -2 4 4 -6 10 54 85 98 121 10 9 32 31 49 49 17 18 47 43 66 55 20
12 45 30 56 40 29 27 71 47 80 39 5 -4 5 -2 2 4 -4 8 22 27 71 52 242 125 474
170 737 142z"/>
<path d="M12903 6115 c-34 -7 -82 -23 -108 -34 -25 -11 -48 -20 -50 -21 -3 0
-13 -8 -23 -17 -11 -10 -38 -35 -61 -57 -87 -80 -132 -160 -155 -274 -14 -73
-16 -203 -16 -1188 0 -1201 0 -1195 55 -1306 13 -27 21 -48 18 -48 -4 0 2 -7
13 -15 10 -8 15 -15 10 -15 -5 0 24 -33 65 -73 96 -95 167 -133 276 -148 159
-23 295 23 406 136 75 76 107 122 143 210 l29 70 3 920 c1 506 -1 1046 -6
1200 -9 269 -10 283 -36 350 -15 38 -34 77 -43 87 -9 10 -14 18 -11 18 12 0
-110 119 -147 143 -94 61 -250 88 -362 62z"/>
<path d="M7450 5518 l0 -533 147 2 c82 2 238 4 348 6 197 3 219 6 315 44 8 3
18 5 23 5 4 -1 7 2 7 8 0 5 12 16 28 24 15 8 44 30 65 50 22 19 43 34 49 33 6
-1 12 5 13 13 1 9 15 33 30 55 68 100 102 227 90 345 -7 71 -30 152 -53 188
-8 12 -12 22 -9 22 6 0 -20 33 -81 101 -43 47 -157 129 -181 129 -7 0 -9 5 -5
12 4 7 3 8 -4 4 -6 -4 -35 0 -64 9 -42 12 -113 15 -385 15 l-333 0 0 -532z"/>
<path d="M3310 6000 c0 -5 5 -10 11 -10 5 0 7 5 4 10 -3 6 -8 10 -11 10 -2 0
-4 -4 -4 -10z"/>
<path d="M5296 5492 c-9 -95 -40 -307 -87 -592 -21 -135 -53 -328 -69 -430
-28 -174 -170 -1062 -170 -1064 0 -1 146 0 325 2 215 2 325 6 325 13 0 6 5 7
10 4 6 -3 10 -2 10 4 0 5 -4 11 -9 13 -5 2 -27 131 -50 288 -22 157 -48 328
-56 380 -8 52 -33 223 -55 380 -22 157 -47 323 -55 370 -8 47 -17 108 -19 135
-3 28 -19 140 -36 250 -17 110 -34 224 -37 253 -8 75 -19 73 -27 -6z"/>
<path d="M10551 5458 c-15 -130 -110 -748 -118 -768 -3 -8 -5 -18 -5 -23 1 -4
-7 -62 -18 -130 -12 -67 -23 -135 -25 -152 -5 -34 -3 -22 -90 -567 -36 -224
-65 -408 -65 -410 0 -2 146 -2 325 0 l325 3 0 28 c0 15 -18 147 -40 292 -22
145 -42 284 -45 309 -3 25 -18 133 -34 240 -16 107 -48 321 -70 475 -87 599
-118 795 -124 801 -2 3 -9 -42 -16 -98z"/>
</g>
</svg>
